<svg xmlns="http://www.w3.org/2000/svg" width="623.929" height="399.264" viewBox="0 0 623.929 399.264">
  <g id="voters" transform="translate(-391.685 -182.35)">
    <g id="Group_64" data-name="Group 64" transform="translate(247.685 100.35)">
      <path id="Path_164" data-name="Path 164" d="M537.839,598.377c-3.868,0-7.757-.146-11.69-.5-15.025-1.358-30.255-2.036-45.206-3.974-34.311-4.45-68.638-4.712-103.2-4.712-13.723,0-27.444-.124-41.163-.124-19.976,0-39.947.263-59.883,1.555-31.107,2.016-62.268,2.338-93.432,2.338q-7.042,0-14.084-.018h-.916c-17.25,0-34.43,1.029-51.654,1.756-17.3.731-34.129,1.93-51.332,1.93q-2.327,0-4.666-.031c-17.189-.229-43.362-5.079-55.625-17.441-7.281-7.345-6.294-25.014,1-32.1,3.185-3.093,8.32-5.517,12.514-6.99,11.95-4.2,24.11-4.209,36.6-4.3l.455,0a96.818,96.818,0,0,1,25.835,4.019c7.513,2.126,15.189,2.872,22.83,4.195a115.876,115.876,0,0,0,19.556,1.6,123.165,123.165,0,0,0,12.683-.647c11.094-1.154,22.268-1.69,33.394-2.6q3.679-.3,7.331-.712L175.9,553l8.873,2.993,5.878-16.063c3.208-.431,6.416-.867,9.629-1.275l0,29.025,208.98-.024,0-27.781,9.246.277-.08-5.337a83.748,83.748,0,0,1,14.3,1.388,131.735,131.735,0,0,0,22.45,3.288c6.49.24,13,.319,19.516.319,11.581,0,23.184-.25,34.726-.29,1.157,0,2.766-.011,4.762-.011,25.844,0,115.877,1.15,109.418,24.419-2.479,8.942-16.91,20.579-25,24.325a97.4,97.4,0,0,1-32.658,8.475c-9.485.8-18.734,1.65-28.1,1.65Z" transform="translate(144 -117.113)" fill="#efeff0"/>
      <g id="Group_62" data-name="Group 62" transform="translate(148.468 82)">
        <path id="Path_165" data-name="Path 165" d="M240.185,87.433l-207.1,61.506L7.118,61.506,214.219,0l25.967,87.433Z" transform="translate(-7.118 0)" fill="#fff"/>
        <path id="Path_166" data-name="Path 166" d="M85.174,151.3l-26.38-38.657L69.379,109.5,79.942,126.02c2.964,4.638,5.745,9.124,8.34,14.147l.19-.056c-.447-5.455-.622-10.921-.613-16.235L87.889,104l10.268-3.05-1.7,47Z" transform="translate(-26.357 -37.585)" fill="#3b455a"/>
        <path id="Path_167" data-name="Path 167" d="M144.526,113.739c2.485,8.368,8.166,13.1,14.631,11.176,6.529-1.939,8.424-9.262,5.957-17.565-2.277-7.67-7.911-13.17-14.567-11.194C144.019,98.094,142.061,105.435,144.526,113.739Zm30.7-9.737c4.16,14.009-1.812,25.024-14.3,28.733-12.678,3.765-22.936-3.6-26.55-15.774-3.8-12.8,1.532-24.8,14.145-28.55,13.121-3.9,23.2,3.8,26.7,15.591Z" transform="translate(-54.049 -32.535)" fill="#3b455a"/>
        <path id="Path_168" data-name="Path 168" d="M206.274,78.823,194.8,82.23l-2.41-8.113,32.834-9.751,2.41,8.114-11.663,3.463,10.279,34.609-9.7,2.881Z" transform="translate(-76.096 -23.964)" fill="#3b455a"/>
        <path id="Path_169" data-name="Path 169" d="M285.618,74.4,269.9,79.07l3.012,10.141L290.469,84l2.353,7.923-27.256,8.095L252.877,57.293l26.37-7.831,2.353,7.923-16.67,4.951,2.635,8.874,15.72-4.668,2.334,7.86Z" transform="translate(-98.615 -18.415)" fill="#3b455a"/>
        <path id="Path_170" data-name="Path 170" d="M516.417,211.922l-128.8-40.49,17.094-54.376,128.8,40.491Z" transform="translate(-148.78 -43.58)" fill="#fff"/>
        <path id="Path_171" data-name="Path 171" d="M434.307,175.5l-.162-29.247,6.583,2.07-.3,12.251c-.085,3.439-.212,6.735-.621,10.244l.117.037c1.675-2.982,3.494-5.876,5.355-8.626l6.959-10.288,6.386,2.008-17.3,23.756-7.018-2.206Z" transform="translate(-166.101 -54.452)" fill="#3b455a"/>
        <path id="Path_172" data-name="Path 172" d="M474.356,176.274c-1.636,5.2-.343,9.638,3.676,10.9,4.062,1.277,7.6-1.855,9.225-7.02,1.5-4.77.5-9.589-3.637-10.89-4.061-1.276-7.641,1.844-9.265,7.008Zm19.31,5.681c-2.739,8.712-9.681,12.334-17.447,9.893-7.884-2.478-10.625-9.881-8.246-17.45,2.5-7.963,9.461-12.317,17.3-9.851,8.161,2.566,10.694,10.076,8.389,17.409Z" transform="translate(-178.387 -61.005)" fill="#3b455a"/>
        <path id="Path_173" data-name="Path 173" d="M521.837,179.667l-7.134-2.243,1.586-5.045L536.71,178.8l-1.587,5.046-7.253-2.281L521.1,203.087l-6.032-1.9,6.766-21.524Z" transform="translate(-196.093 -64.177)" fill="#3b455a"/>
        <path id="Path_174" data-name="Path 174" d="M560.881,204.508l-9.778-3.073-1.982,6.307,10.92,3.434-1.549,4.927-16.951-5.329,8.353-26.57,16.4,5.156-1.549,4.927-10.368-3.259-1.735,5.519,9.777,3.074-1.537,4.888Z" transform="translate(-206.085 -68.579)" fill="#3b455a"/>
        <path id="Path_175" data-name="Path 175" d="M850.187,95.082,690.944,114.658l-8.264-67.23L841.925,27.852Z" transform="translate(-258.632 -10.369)" fill="#fff"/>
        <path id="Path_176" data-name="Path 176" d="M732.592,110.312l-14.7-31.856,8.217-1.011,5.758,13.527c1.616,3.8,3.115,7.459,4.41,11.5l.148-.018c.346-4.088.9-8.151,1.562-12.079l2.489-14.691,7.971-.98-7.092,34.536Z" transform="translate(-271.74 -27.811)" fill="#3b455a"/>
        <path id="Path_177" data-name="Path 177" d="M780.247,88.5c.8,6.495,4.411,10.7,9.431,10.079,5.067-.623,7.377-5.8,6.586-12.247-.732-5.954-4.215-10.72-9.381-10.085C781.814,76.874,779.455,82.058,780.247,88.5Zm23.908-3.388c1.336,10.874-4.447,18.277-14.139,19.469-9.841,1.21-16.511-5.512-17.673-14.959-1.221-9.938,4.213-18.149,14-19.352,10.184-1.253,16.682,5.691,17.808,14.843Z" transform="translate(-291.95 -26.108)" fill="#3b455a"/>
        <path id="Path_178" data-name="Path 178" d="M831.267,71.281l-8.906,1.1-.774-6.3,25.487-3.133.775,6.3L838.8,70.356l3.3,26.864-7.528.926-3.3-26.865Z" transform="translate(-310.347 -23.435)" fill="#3b455a"/>
        <path id="Path_179" data-name="Path 179" d="M890.621,77.386l-12.2,1.5.968,7.873,13.629-1.675.756,6.15-21.157,2.6-4.076-33.163,20.468-2.517.756,6.151L876.822,65.9l.847,6.888,12.2-1.5Z" transform="translate(-327.827 -21.651)" fill="#3b455a"/>
        <path id="Path_180" data-name="Path 180" d="M558.2,292.487l-.421,4.356-8.018,1.8-3.981-3.914.65-5.051,4.29.313.278-1.093,1.511-.717,5.69,4.309Z" transform="translate(-207.662 -107.29)" fill="#e4d2b8"/>
        <path id="Path_181" data-name="Path 181" d="M864.354,399.8l1.712,39.718-5.02,67.533-7.511.533-9.127-61.336-12.624-51.9,32.57,5.454Z" transform="translate(-314.143 -146.815)" fill="#3b455a"/>
        <path id="Path_182" data-name="Path 182" d="M866.692,577.036l8.412,3.484,3.772-4.351-4.35-3.772-8.123.577.289,4.061Z" transform="translate(-327.032 -213.105)" fill="#556362"/>
        <path id="Path_183" data-name="Path 183" d="M797.983,378.811l-1.648,30.021,4.891,89.266,7.521.375,11.272-58.547,9.942-64.2-31.977,3.088Z" transform="translate(-300.946 -139.883)" fill="#3b455a"/>
        <path id="Path_184" data-name="Path 184" d="M808.551,573.676l-8.336,3.66-3.864-4.269,4.27-3.864,8.133.407-.2,4.066Z" transform="translate(-300.952 -211.916)" fill="#556362"/>
        <path id="Path_185" data-name="Path 185" d="M837.683,238.253l-23.47-2.515s-13.057,1.4-21.915,32.4c-4.929,17.251-6.429,44.43-6.79,65.151.554,2.956,3.774,15.9,17.391,13.706,23.383-3.771,35.829-7.542,46.012-5.657,8.674,1.886,7.941-10.058,6.988-19.171l-3.456-28.2Z" transform="translate(-296.915 -87.766)" fill="#7db5db"/>
        <path id="Path_186" data-name="Path 186" d="M847.344,192.145c-5.915-1.3-12-2.472-17.925-1.3a4.947,4.947,0,0,0-3.393,1.827,5.193,5.193,0,0,0-.55,1.429c-1.495,5.554-3.39,13.789.267,18.907a9.162,9.162,0,0,0,2.641,2.38,13.025,13.025,0,0,0,4.376,1.717,23.49,23.49,0,0,1-1.324,4.034c1.354,2.042,7.671,2.287,8.839.329q.1-2.541.2-5.082a12.557,12.557,0,0,0,2.21-1.147,14.284,14.284,0,0,0,5.512-7.5c1.125-3.287,2.708-6.411,3.736-9.762a4.721,4.721,0,0,0,.028-3.717c-.684-1.174-2.159-1.574-3.486-1.87l-1.125-.25Z" transform="translate(-311.108 -70.872)" fill="#a0734b"/>
        <path id="Path_187" data-name="Path 187" d="M823.615,187.359a18.444,18.444,0,0,1,10.059-2.491c8.312.6,11.357,6.706,11.8,14.349,2.29-2.911,6.587-6.571,6.846-10.316.212-3.065-.211-7.245-1.928-9.893-1.607-2.477-5.716-3.837-8.159-5.273l-6.91-4.059a3.5,3.5,0,0,0-3.462-.445l-16.332,4.221c-1.046.27-2.237.665-2.623,1.674a3.426,3.426,0,0,0,.044,1.941c.618,2.826,1.8,5.715,2.1,8.577.333,1.663,1.324,10.188,4.269,9.2.865-1.414.994-3.155,1.668-4.669a6.766,6.766,0,0,1,2.629-2.821Z" transform="translate(-307.068 -62.911)" fill="#3b455a"/>
        <path id="Path_188" data-name="Path 188" d="M806.185,235.738l-8.674,2.64L765.83,271.567,763.944,282.5l15.145,25.006,4.09-9.165-6.412-18.481L786.95,272.7l13.578-30.549Z" transform="translate(-288.886 -87.766)" fill="#7db5db"/>
        <path id="Path_189" data-name="Path 189" d="M860.7,202.742l16.132-17.429-3.8-47.235,7.089-3.113,9.643,47.915-2.951,11.942-18.086,24.95Z" transform="translate(-324.908 -50.248)" fill="#7db5db"/>
        <path id="Path_190" data-name="Path 190" d="M683.919,556.762a3.091,3.091,0,0,1,2.794-1.2,3.158,3.158,0,0,1,2.346,1.769,5.99,5.99,0,0,1,.4,2.012c.292,3.543.266,11.955-4.453,13.165a3.512,3.512,0,0,1-4.153-2.681C680.058,567.146,681.239,559.714,683.919,556.762Z" transform="translate(-257.861 -206.826)" fill="#323643"/>
        <path id="Path_191" data-name="Path 191" d="M683.207,472.342l.248,21.61c-.287,9.6,1.211,19.251.923,28.852-.066,2.206-.641,4.535-.085,6.723.544,2.14,2.282,2.518,4.068,1.435,2.392-1.452,2.006-4.843,2.4-7.317,1.094-6.8,2.378-13.563,3.52-20.352.561-3.329-.594-7.993-.343-11.362l3.491-18.111Z" transform="translate(-258.828 -175.854)" fill="#efcba0"/>
        <path id="Path_192" data-name="Path 192" d="M704.529,399.239l-9.405,41.781-2,39.455-14.914-.335-4.056-110.362,28.912.524,1.461,28.937Z" transform="translate(-255.458 -137.669)" fill="#40495f"/>
        <path id="Path_193" data-name="Path 193" d="M649.658,555.592a3.031,3.031,0,0,1,2.836-1.034,3.225,3.225,0,0,1,2.263,1.908,6.083,6.083,0,0,1,.315,2.037c.141,3.563-.245,11.98-5,12.914a3.571,3.571,0,0,1-4.025-2.929C645.366,565.756,646.86,558.387,649.658,555.592Z" transform="translate(-244.932 -206.441)" fill="#323643"/>
        <path id="Path_194" data-name="Path 194" d="M655.951,477.175l-1.266,21.575c-.1,6-.9,11.945-1.522,17.9-.577,5.531.32,11.294-2.57,16.325-.907,1.577-2.739,2.628-4.02.711-.987-1.477-.4-3.941-.589-5.617-.773-6.841-1.736-13.659-2.557-20.494-.4-3.351.97-7.957.878-11.334l-2.633-18.253,14.281-.814Z" transform="translate(-243.363 -177.654)" fill="#efcba0"/>
        <path id="Path_195" data-name="Path 195" d="M633.634,397.159l-1.214,40.557,6.364,41.013,15.171.454-.67-44.386,8.028-36.809,2.695-24.095-24.072-2.839Z" transform="translate(-239.92 -138.144)" fill="#40495f"/>
        <path id="Path_196" data-name="Path 196" d="M656.1,238.455l25.934-.619L697.065,265.8l-5.344,26.192-.952,31.345-36.993.505L641.6,321.866l3.232-33.491-1.853-44.738,13.112-5.181Z" transform="translate(-243.339 -88.547)" fill="#305399"/>
        <path id="Path_197" data-name="Path 197" d="M621.662,261.061,612.3,289.767l-13.976,5.018-38.234-10.3,5.14-7.948,33.627,1.095,13.833-28.56Z" transform="translate(-212.99 -92.729)" fill="#305399"/>
        <path id="Path_198" data-name="Path 198" d="M666.359,200.187c3.91-11.366,18.915-7.107,22.009,3.014,2.018,6.6-3.081,15.169-9.921,17.065a6.841,6.841,0,0,0-.054.708,22.156,22.156,0,0,1-.293,3.164c-.058.395-6.045-.756-6.713-.887a.906.906,0,0,1-.62-.305c-.242-.377.151-1.483.195-1.9q.078-.74.156-1.479a11.8,11.8,0,0,1-6.1-8.726A21.917,21.917,0,0,1,666.359,200.187Z" transform="translate(-251.979 -72.008)" fill="#efcba0"/>
        <path id="Path_199" data-name="Path 199" d="M666.887,186.888a5.965,5.965,0,0,1,1.353,3.051,4.766,4.766,0,0,1,.118,1.977c-.557,2.58-3.117,2.445-5.1,3.277a13.2,13.2,0,0,0-5.912,5.089c-2.14,3.405-1.177,7.787-.309,11.543.306,1.323.921,3.292-.105,4.472-1.043,1.2-3.454,1.014-4.7.4-1.141-.564-2.079-1.607-3.332-1.817-1.326-.222-3.12.361-3.737-.856a8.223,8.223,0,0,0-.4-1.063c-.733-1.048-2.556.179-3.589-.56a2.017,2.017,0,0,1-.416-2.189,5.218,5.218,0,0,0,.427-2.323,7.688,7.688,0,0,0-.911-1.81,3.565,3.565,0,0,1,.492-3.789c1.634-1.891,4.8-1.532,6.546-3.31a7.7,7.7,0,0,0,1.6-3.528,6.768,6.768,0,0,1,1.723-3.455c1.2-1.058,2.943-.879,4.131-2.134a24.4,24.4,0,0,1,1.947-2.34,15.709,15.709,0,0,1,4.336-1.928,5.639,5.639,0,0,1,5.839,1.3Z" transform="translate(-242.717 -68.979)" fill="#3b455a"/>
        <path id="Path_200" data-name="Path 200" d="M688.471,201c.07,3.741-1.788,7.786-.065,11.079,1.739,3.324,6.074,3.922,9.769,4.1.608.029,8.407.7,8.439.554a25.4,25.4,0,0,1,2.55-7.552c1.362-2.288,3.639-4.184,6.247-4.346a1.6,1.6,0,0,1-1.045-1.828,12.4,12.4,0,0,1,.722-2.223,5.235,5.235,0,0,0-1.367-5.261c-2.759-2.572-7.76-1.5-10.125-4.457-1.466-1.831-1.292-4.487-2.06-6.723-1.486-4.322-6.219-5.227-9.756-7.18-3.734-2.06-7.25-3.19-11.56-2.472-5.343.891-9.314,6.33-7.254,11.449,2.643,6.565,13.208,6,15.186,12.664a8.23,8.23,0,0,1,.318,2.2Z" transform="translate(-254.809 -64.957)" fill="#3b455a"/>
        <path id="Path_201" data-name="Path 201" d="M683.03,238.307l-8.045,11.371-3.782-.309-6.3-11.532,18.131.471Z" transform="translate(-252.012 -88.547)" fill="#e3e3e4"/>
        <path id="Path_202" data-name="Path 202" d="M224.705,253.954l28.119,20.519,24.52-10.594,3.6,6.615-18.571,12.648-10.41,3.891L224.705,273.91V253.954Z" transform="translate(-88.126 -94.548)" fill="#305399"/>
        <path id="Path_203" data-name="Path 203" d="M280.337,563.52l-.59,4.592,8.593,5.772,5.182-4-4-5.182-8.593-5.772Z" transform="translate(-108.619 -208.09)" fill="#40495f"/>
        <path id="Path_204" data-name="Path 204" d="M279.426,481.1l6.627-58.557-7.974-65.555,1.793-13.945,35.612-1.353,1.286,22.7-5.979,58.246L288.3,484.092l-8.873-2.993Z" transform="translate(-107.998 -127.212)" fill="#305399"/>
        <path id="Path_205" data-name="Path 205" d="M357.9,348.774l.094,59.092L346.1,483.938l-8.562-.085L332.831,413.5l-11.014-70.411Z" transform="translate(-124.281 -127.734)" fill="#305399"/>
        <path id="Path_206" data-name="Path 206" d="M346.882,570.346l9.212,4.721,4.675-4.582-4.583-4.676-9.259-.092-.046,4.629Z" transform="translate(-133.613 -210.618)" fill="#40495f"/>
        <path id="Path_207" data-name="Path 207" d="M272.175,329.687c.081-2.561.223-4.7.244-5.461.183-6.869.8-13.723,1.655-20.543.77-6.113,1.743-21.286,2.789-27.36.864-5.016,3.873-17.535,6.047-22.187,5.408-11.568,3.737-12.637,27.49-16.072,10.41-1.505,12.871,4.982,21.382,12.443.839.736.793,5.117.988,6.278.343,2.043.711,4.083,1.132,6.113.331,1.6.7,3.186,1.106,4.767h0s7.145,32.515,11.87,39.421,14.487,16.559-1.842,22.454a58.424,58.424,0,0,1-8.817,2.3s-13.354-1.484-20.222-1.433a116.75,116.75,0,0,0-18.894,1.759,40.667,40.667,0,0,0-12.121,3.648c-3.548,1.854-6.11,4.58-9.711,6.5a1.876,1.876,0,0,1-1.1.316C272.1,342.344,272,335.077,272.175,329.687Z" transform="translate(-105.778 -88.55)" fill="#3b455a"/>
        <path id="Path_208" data-name="Path 208" d="M325.595,226.5c-1.2.592-4.027.8-6.978-.352a1.541,1.541,0,0,1-.988-1.445,40.164,40.164,0,0,1,.431-5.356c-2.213-.778-4.771-1.945-5.156-4.259a6.612,6.612,0,0,1,.13-2.2q.781-4.516,1.56-9.031a8.081,8.081,0,0,1,.938-3.005c.994-1.565,2.921-2.25,4.749-2.567a16.493,16.493,0,0,1,13.355,3.253,7.229,7.229,0,0,1,2.256,2.975c.653,1.828.164,3.844-.328,5.722l-1.365,5.2c-.524,1.994-1.279,4.26-3.2,5.007-1.02.4-2.224.281-3.147.869C326.223,222.342,326.442,224.763,325.595,226.5Z" transform="translate(-120.945 -73.721)" fill="#eac1a4"/>
        <path id="Path_209" data-name="Path 209" d="M346.715,186.9a19.515,19.515,0,0,1,1.5-2.157,38.017,38.017,0,0,0,3.63-4.373c.962-1.636,1.3-3.853.146-5.359a5.873,5.873,0,0,0-3.128-1.8,22.732,22.732,0,0,0-11.958-.221c-3.725.948-7.058,2.518-10.807,1.117-3.523-1.315-6.067-.779-9.749.534-3.984,1.422-9.333,1.757-12.939,3.764A10.632,10.632,0,0,0,299.768,182a16.031,16.031,0,0,0-.045,16.952,22.91,22.91,0,0,0,2.5,3.145c1.879,2.038,4.128,4.556,6.713,5.312.062-2.313-2.045-9.607-.269-11.5,2.819-3.009,9.193-1.959,12.69-1.218,3.815.808,7.215,3.509,11,4.087,2.722.415,6.2-.92,8.51-2.326C343.715,194.709,345.044,189.645,346.715,186.9Z" transform="translate(-115.162 -64.145)" fill="#3b455a"/>
        <path id="Path_210" data-name="Path 210" d="M283.094,245.277l-14.821,12.986-16.534,34.746,20.883,24.845,3.592-13.893,6.879-58.683Z" transform="translate(-98.191 -91.317)" fill="#3b455a"/>
        <path id="Path_211" data-name="Path 211" d="M187.049,408.038l-31.764-10.66,8.056,54.879-2.393,47.614-.092.319.075.006-.005.1,6.217.414v-.006l.231.019L180.008,458l6.038-45.3Z" transform="translate(-62.281 -147.945)" fill="#cfd0d1"/>
        <path id="Path_212" data-name="Path 212" d="M169.063,565.47l-6.435.021-1.487,5.473.164.044-.041.006,10.812,6,5.071.417.477-5.8-1.394-.961-7.166-5.2Z" transform="translate(-64.461 -210.526)" fill="#40495f"/>
        <path id="Path_213" data-name="Path 213" d="M225.714,411.268l-6.733,94.551-6.214.46-7.709-50.729-12.288-50.39Z" transform="translate(-76.237 -150.843)" fill="#cfd0d1"/>
        <path id="Path_214" data-name="Path 214" d="M230.406,569.009l8.375,4.437-.661,3.911-14.789-1.8.706-5.627Z" transform="translate(-87.615 -211.844)" fill="#40495f"/>
        <path id="Path_215" data-name="Path 215" d="M141.472,365.93c-.663-15.984,13.612-66.811,13.612-66.811h0a90.173,90.173,0,0,0,3.351-14.5c.491-3.467,10.881-42.874,10.192-42.924,7.156.523,20.956-1.169,26.257,3.914.151.145.3.3.433.453,4.133,4.713,6.281,14.256,8.234,20.13a157.637,157.637,0,0,1,5.886,23.648c1.177,7.012,1.877,14.094,2.371,21.185.424,6.095.087,12.156.3,18.152.23,6.637,2.221,13.834,3.706,20.291a112.5,112.5,0,0,0,6.02,19.071c-7.106,3.145-15.02,3.994-22.79,4.024s-15.53-.721-23.3-.6c-6.57.1-13.221.817-19.658-.5-5.119-1.048-9.845-3.327-14.608-5.526h0Z" transform="translate(-57.13 -89.982)" fill="#305399"/>
        <path id="Path_216" data-name="Path 216" d="M223.778,211.672c3.266,1.614,6.671,5.774,6.461,9.646-.1,1.865-1.133,3.314-1.162,5.314-.073,3.943-6.051,8.072-2.392,11.874,1.881,1.955,4.821,2.338,7.519,2.609a1.989,1.989,0,0,0,.974-.065,1.4,1.4,0,0,0,.731-1.343,5.7,5.7,0,0,0-.384-1.572c-1.717-5.4.876-11.691,1.182-17.191s-.994-11.415-5.494-14.992c-3.017.92-5.266,2.194-6.749,4.979Z" transform="translate(-87.781 -76.676)" fill="#3b455a"/>
        <path id="Path_217" data-name="Path 217" d="M212.906,235.89c3.721-.468,6.883-3.214,8.616-6.54a23.762,23.762,0,0,0,2.232-10.918c.059-12.479-15.384-13.322-21.592-4.413-5.41,7.764-.076,23.233,10.743,21.87Z" transform="translate(-78.939 -77.47)" fill="#eac1a4"/>
        <path id="Path_218" data-name="Path 218" d="M177.093,232.837a10.569,10.569,0,0,0,5.3-2.767c2.4-2.618,3.114-7.546,4.244-10.807,1.19-3.437,2.6-7.151,5.722-9.015,2.041-1.216,4.094-1.123,6.33-.722,1.531.274,1.476.863,2.927.3a6.716,6.716,0,0,0,2.768-3.194,6.456,6.456,0,0,0-.552-5.548,9.049,9.049,0,0,0-6.278-4.742c-9.9-2.17-18.521,2.261-23.229,11.426-2.263,4.405-2.286,9.8-4.605,14.011-1.432,2.6-3.572,4.1-4.872,6.913-3.374,7.3-9.532,16.272-10.765,24.263a1.133,1.133,0,0,0,.107.866c.37.484,1.135.132,1.614-.244l8.387-6.6a15.04,15.04,0,0,0,3.028-2.876c2.035-2.82,2.084-6.975,4.817-9.125a13.971,13.971,0,0,1,5.058-2.137Z" transform="translate(-61.82 -72.895)" fill="#3b455a"/>
        <path id="Path_219" data-name="Path 219" d="M111.859,226.02c-1.871.349-6.742-.955-7.861-2.674-2.584-3.968,3.545-2.746,5.758-2.8a12.116,12.116,0,0,1-.62-2.291c-.09-.722,6.487,1.152,7.12,1.842,1.521,1.653.827,2.9.69,4.993-1.7.27-3.395.615-5.089.931Z" transform="translate(-42.954 -81.196)" fill="#d9caaf"/>
        <path id="Path_220" data-name="Path 220" d="M168.155,267.6l-35.938-5.979-16.549-33.559,6.578-5.421,17.512,23.239,18.3-.778,16.936.734Z" transform="translate(-47.532 -82.891)" fill="#305399"/>
        <path id="Path_221" data-name="Path 221" d="M884.244,129.553v-4.324l-4.981-6.59-3.409,3.042,2.233,5.855-1.412,2.017,2,2.447Z" transform="translate(-330.551 -44.17)" fill="#a0734b"/>
        <path id="Path_222" data-name="Path 222" d="M444.131,220.732l5.437-6.861-2.83-2.451-4.765,3.874-.8-1.781-3.938,6.438,2.6,2.946Z" transform="translate(-167.252 -78.712)" fill="#d9caaf"/>
        <path id="Path_223" data-name="Path 223" d="M337.429,235.4l41.431,2.511,21.217-12.9,3.738,3.624-15.676,22.544-30.016,6.4L337.429,235.4Z" transform="translate(-130.094 -83.771)" fill="#3b455a"/>
        <path id="Path_224" data-name="Path 224" d="M528.039,482.592l-208.98.024-.021-176.258,208.98-.024Z" transform="translate(-123.247 -114.049)" fill="#7db5db"/>
        <path id="Path_225" data-name="Path 225" d="M529.46,350.842l-216.039.026-.005-44.509,216.038-.026Z" transform="translate(-121.154 -114.049)" fill="#587bc9"/>
        <path id="Path_226" data-name="Path 226" d="M651.983,383.745l-.005-6.46h.005Z" transform="translate(-247.201 -140.464)" fill="#394255" fill-rule="evenodd"/>
        <path id="Path_227" data-name="Path 227" d="M319.042,387.365h-.011v-.355l.011,0Z" transform="translate(-123.244 -144.084)" fill="#2b4b89"/>
        <path id="Path_228" data-name="Path 228" d="M319.031,383.39v-6.1h.01v6.1l-.011,0Z" transform="translate(-123.244 -140.464)" fill="#353e51"/>
        <path id="Path_229" data-name="Path 229" d="M528.031,383.745H319.047v-6.46H528.031l0,6.46" transform="translate(-123.25 -140.464)" fill="#70a3c5"/>
        <path id="Path_230" data-name="Path 230" d="M502.9,423.195l-14.931-14.93-27.815,27.814-27.815-27.814-14.93,14.93,27.815,27.815-27.815,27.815,14.93,14.93,27.815-27.815,27.815,27.815,14.931-14.93L475.086,451.01Z" transform="translate(-159.87 -151.998)" fill="#fff"/>
        <path id="Path_231" data-name="Path 231" d="M312.34,365.451l7.595,4.354,2-3.165-4.541-4.134,1.642-1.056-6.953-2.935-2.526,3.009Z" transform="translate(-119.718 -133.476)" fill="#d9caaf"/>
        <path id="Path_232" data-name="Path 232" d="M693.491,363.657l-96,18.033-7.613-40.528,96-18.034Z" transform="translate(-224.082 -120.301)" fill="#fff"/>
        <path id="Path_233" data-name="Path 233" d="M622.137,380.593l-10.065-18.609,4.907-.921,3.982,7.92c1.117,2.223,2.159,4.37,3.093,6.75l.089-.017c.052-2.474.228-4.94.479-7.328l.937-8.936,4.759-.894-2.95,21.054-5.23.983Z" transform="translate(-232.344 -133.491)" fill="#3b455a"/>
        <path id="Path_234" data-name="Path 234" d="M650.266,365.953c.729,3.879,3.064,6.268,6.06,5.706,3.027-.569,4.219-3.774,3.5-7.622-.668-3.555-2.946-6.29-6.032-5.711C650.766,358.894,649.544,362.1,650.266,365.953ZM664.525,363c1.219,6.493-1.977,11.169-7.765,12.256-5.875,1.1-10.147-2.687-11.207-8.328-1.114-5.934,1.842-11.083,7.689-12.182,6.082-1.142,10.257,2.788,11.284,8.253Z" transform="translate(-244.723 -132)" fill="#3b455a"/>
        <path id="Path_235" data-name="Path 235" d="M680.023,353.448l-5.318,1-.707-3.76,15.219-2.86.707,3.761-5.406,1.016,3.013,16.04-4.495.845-3.013-16.041Z" transform="translate(-255.399 -129.497)" fill="#3b455a"/>
        <path id="Path_236" data-name="Path 236" d="M715.964,354.97l-7.286,1.368.883,4.7,8.138-1.529.69,3.673-12.633,2.373-3.72-19.8,12.222-2.3.69,3.672-7.726,1.451.772,4.113,7.286-1.368Z" transform="translate(-265.837 -127.871)" fill="#3b455a"/>
        <path id="Path_237" data-name="Path 237" d="M725.73,374.854l4.366.308,2.007,7.967-3.809,4.082-5.065-.517.2-4.3-1.1-.249-.756-1.491Z" transform="translate(-273.111 -139.559)" fill="#e4d2b8"/>
        <path id="Path_238" data-name="Path 238" d="M701.181,237.951l12.241,5.728,21.506,38.367-8.807,42.384-9.332-.29,2.456-37.293L705.3,265.38Z" transform="translate(-265.519 -88.59)" fill="#305399"/>
      </g>
    </g>
  </g>
</svg>
